<svg width="32" height="32" viewBox="0 0 32 32" fill="none" xmlns="http://www.w3.org/2000/svg">
<g clip-path="url(#clip0_1_46)" filter="url(#filter0_i_1_46)">
<path d="M21.7581 17.251C22.5463 17.4779 23.3344 17.5931 24.1011 17.5931C25.285 17.5931 26.2728 17.3225 27.0388 16.9912C26.3004 19.6947 24.5264 24.3595 20.9925 24.8848C20.6652 24.9335 20.397 25.1701 20.3077 25.4887L19.5354 28.2512C19.4702 28.4849 19.5088 28.7349 19.6421 28.9377C19.7754 29.1404 19.9895 29.2757 20.2295 29.3086C20.4903 29.3442 20.7562 29.3623 21.0197 29.3623C25.2615 29.3623 29.4623 24.9348 31.235 18.5954C32.2756 14.8762 32.5807 9.2846 30.0175 5.76511C28.5832 3.79574 26.4907 2.74409 23.798 2.63902C23.7869 2.63869 23.7762 2.63835 23.7651 2.63835C20.4427 2.63835 17.4965 4.87592 16.6003 8.07921C16.0649 9.9942 16.3069 12.0025 17.2824 13.7356C18.2474 15.4492 19.8368 16.6982 21.7581 17.251Z" fill="#73574B" fill-opacity="0.1"/>
<path d="M0.960661 13.7352C1.9257 15.4492 3.51508 16.6982 5.43643 17.251C6.22457 17.4779 7.01271 17.5931 7.77904 17.5931C8.96293 17.5931 9.95113 17.3225 10.7171 16.9912C9.97865 19.6947 8.20466 24.3595 4.67044 24.8848C4.34316 24.9335 4.0753 25.1701 3.98568 25.4887L3.21331 28.2512C3.14819 28.4849 3.18679 28.7349 3.32005 28.9377C3.45298 29.1404 3.66713 29.2757 3.90747 29.3086C4.16794 29.3442 4.43379 29.3623 4.69763 29.3623C8.93943 29.3623 13.1403 24.9348 14.9133 18.5954C15.9535 14.8762 16.2586 9.2846 13.6951 5.76444C12.2612 3.7954 10.1683 2.74341 7.47593 2.63868C7.46485 2.63835 7.45411 2.63801 7.4427 2.63801C4.12062 2.63801 1.17415 4.87558 0.277919 8.07887C-0.256796 9.99386 -0.0144466 12.0025 0.960661 13.7352Z" fill="#73574B" fill-opacity="0.1"/>
</g>
<defs>
<filter id="filter0_i_1_46" x="0" y="0" width="32" height="34.7202" filterUnits="userSpaceOnUse" color-interpolation-filters="sRGB">
<feFlood flood-opacity="0" result="BackgroundImageFix"/>
<feBlend mode="normal" in="SourceGraphic" in2="BackgroundImageFix" result="shape"/>
<feColorMatrix in="SourceAlpha" type="matrix" values="0 0 0 0 0 0 0 0 0 0 0 0 0 0 0 0 0 0 127 0" result="hardAlpha"/>
<feOffset dy="2.72024"/>
<feGaussianBlur stdDeviation="1.36012"/>
<feComposite in2="hardAlpha" operator="arithmetic" k2="-1" k3="1"/>
<feColorMatrix type="matrix" values="0 0 0 0 0 0 0 0 0 0 0 0 0 0 0 0 0 0 0.25 0"/>
<feBlend mode="normal" in2="shape" result="effect1_innerShadow_1_46"/>
</filter>
<clipPath id="clip0_1_46">
<rect width="32" height="32" fill="white" transform="translate(32 32) rotate(-180)"/>
</clipPath>
</defs>
</svg>
