<svg width="32" height="32" viewBox="0 0 32 32" fill="none" xmlns="http://www.w3.org/2000/svg">
<g clip-path="url(#clip0_1_51)" filter="url(#filter0_i_1_51)">
<path d="M10.2418 14.749C9.45368 14.5221 8.66554 14.4069 7.89888 14.4069C6.71499 14.4069 5.72712 14.6775 4.96113 15.0088C5.6996 12.3053 7.47359 7.64051 11.0075 7.11519C11.3348 7.06651 11.6029 6.82987 11.6922 6.51132L12.4646 3.74876C12.5297 3.51514 12.4911 3.26506 12.3579 3.06232C12.2246 2.85957 12.0104 2.7243 11.7704 2.6914C11.5096 2.65582 11.2438 2.6377 10.9803 2.6377C6.73848 2.6377 2.53763 7.06517 0.764978 13.4046C-0.275585 17.1238 -0.580706 22.7154 1.98244 26.2349C3.41674 28.2043 5.50927 29.2559 8.20198 29.361C8.21306 29.3613 8.2238 29.3616 8.23488 29.3616C11.5573 29.3616 14.5034 27.1241 15.3997 23.9208C15.935 22.0058 15.693 19.9975 14.7176 18.2644C13.7526 16.5508 12.1632 15.3018 10.2418 14.749Z" fill="#73574B" fill-opacity="0.1"/>
<path d="M31.0393 18.2648C30.0743 16.5508 28.4849 15.3018 26.5636 14.749C25.7754 14.5221 24.9873 14.4069 24.221 14.4069C23.0371 14.4069 22.0489 14.6775 21.2829 15.0088C22.0213 12.3053 23.7953 7.64051 27.3296 7.11519C27.6568 7.06651 27.9247 6.82987 28.0143 6.51132L28.7867 3.74876C28.8518 3.51514 28.8132 3.26506 28.6799 3.06232C28.547 2.85957 28.3329 2.7243 28.0925 2.6914C27.8321 2.65582 27.5662 2.6377 27.3024 2.6377C23.0606 2.6377 18.8597 7.06517 17.0867 13.4046C16.0465 17.1238 15.7414 22.7154 18.3049 26.2356C19.7388 28.2046 21.8317 29.2566 24.5241 29.3613C24.5351 29.3617 24.5459 29.362 24.5573 29.362C27.8794 29.362 30.8259 27.1244 31.7221 23.9211C32.2568 22.0061 32.0144 19.9975 31.0393 18.2648Z" fill="#73574B" fill-opacity="0.1"/>
</g>
<defs>
<filter id="filter0_i_1_51" x="0" y="0" width="32" height="34.7202" filterUnits="userSpaceOnUse" color-interpolation-filters="sRGB">
<feFlood flood-opacity="0" result="BackgroundImageFix"/>
<feBlend mode="normal" in="SourceGraphic" in2="BackgroundImageFix" result="shape"/>
<feColorMatrix in="SourceAlpha" type="matrix" values="0 0 0 0 0 0 0 0 0 0 0 0 0 0 0 0 0 0 127 0" result="hardAlpha"/>
<feOffset dy="2.72024"/>
<feGaussianBlur stdDeviation="1.36012"/>
<feComposite in2="hardAlpha" operator="arithmetic" k2="-1" k3="1"/>
<feColorMatrix type="matrix" values="0 0 0 0 0 0 0 0 0 0 0 0 0 0 0 0 0 0 0.25 0"/>
<feBlend mode="normal" in2="shape" result="effect1_innerShadow_1_51"/>
</filter>
<clipPath id="clip0_1_51">
<rect width="32" height="32" fill="white"/>
</clipPath>
</defs>
</svg>
